<?xml version="1.0" encoding="UTF-8"?>
<svg width="63" height="44" viewBox="0 0 63 44" fill="none" xmlns="http://www.w3.org/2000/svg">
<path fill-rule="evenodd" clip-rule="evenodd" d="M57.5361 0L58.0786 22.4749C58.1403 22.6125 58.1993 22.7507 58.2554 22.8897L63 24.8775L59.0031 27.9188C58.9892 28.0619 58.9723 28.2045 58.9526 28.3467L62.1978 32.0585L57.1484 33.0549C53.1461 39.25 43.2689 43.6326 31.7182 43.6326C20.229 43.6326 10.3955 39.2965 6.3524 33.1537L0.802035 32.0585L4.25175 28.1127L0 24.8775L5.27298 22.6683C5.33928 22.5133 5.40913 22.3592 5.48247 22.206L4.95739 0.453177L24.0351 10.8621C26.4724 10.4263 29.0506 10.1926 31.7182 10.1926C34.478 10.1926 37.1422 10.4428 39.6537 10.9081L57.5361 0Z" fill="#F3F3FF"/>
</svg>
